<?xml version="1.0" encoding="UTF-8" standalone="no"?>
<!-- Created with Inkscape (http://www.inkscape.org/) -->

<svg
   xmlns:dc="http://purl.org/dc/elements/1.1/"
   xmlns:cc="http://creativecommons.org/ns#"
   xmlns:rdf="http://www.w3.org/1999/02/22-rdf-syntax-ns#"
   xmlns:svg="http://www.w3.org/2000/svg"
   xmlns="http://www.w3.org/2000/svg"
   xmlns:sodipodi="http://sodipodi.sourceforge.net/DTD/sodipodi-0.dtd"
   xmlns:inkscape="http://www.inkscape.org/namespaces/inkscape"
   version="1.0"
   width="1062.568"
   height="37.308998"
   id="svg2479"
   inkscape:version="0.91 r13725"
   sodipodi:docname="Playstation32006.svg">
  <metadata
     id="metadata20">
    <rdf:RDF>
      <cc:Work
         rdf:about="">
        <dc:format>image/svg+xml</dc:format>
        <dc:type
           rdf:resource="http://purl.org/dc/dcmitype/StillImage" />
        <dc:title></dc:title>
      </cc:Work>
    </rdf:RDF>
  </metadata>
  <sodipodi:namedview
     pagecolor="#ffffff"
     bordercolor="#666666"
     borderopacity="1"
     objecttolerance="10"
     gridtolerance="10"
     guidetolerance="10"
     inkscape:pageopacity="0"
     inkscape:pageshadow="2"
     inkscape:window-width="1366"
     inkscape:window-height="705"
     id="namedview18"
     showgrid="false"
     inkscape:zoom="0.57919762"
     inkscape:cx="720.34082"
     inkscape:cy="99.638353"
     inkscape:window-x="-8"
     inkscape:window-y="-8"
     inkscape:window-maximized="1"
     inkscape:current-layer="svg2479" />
  <defs
     id="defs2481" />
  <g
     transform="translate(-242.11483,376.42332)"
     id="layer1"
     style="fill:#000000">
    <g
       transform="translate(17.751645,17.664547)"
       id="g3344"
       style="fill:#000000">
      <path
         d="m 814.35354,-385.35182 c 6.15746,0 11.28364,0.21231 17.47141,0.72798 -0.24267,0.69763 -1.72892,4.76216 -1.85027,5.15648 l -35.76177,0 c 0.273,-0.75831 1.72895,-4.76216 1.8806,-5.12615 6.70344,-0.546 12.01159,-0.75831 18.26003,-0.75831 z m 20.77763,-7.55276 c -5.58115,-0.54598 -10.73763,-0.90996 -17.95672,-0.90996 -7.21908,0 -12.64855,0.36398 -18.59368,0.90996 -4.42853,0.39433 -8.76604,0.90997 -12.89124,1.5773 l -0.18199,0.0303 -12.3149,33.85083 13.04287,0 c 0,0 4.94418,-13.61921 5.09584,-14.04384 l 35.73144,0 c -0.30332,0.84929 -5.09584,14.04384 -5.09584,14.04384 l 13.01256,0 12.28458,-33.79018 -0.39432,-0.091 c -3.63987,-0.63699 -7.61341,-1.18297 -11.7386,-1.5773"
         style="fill:#000000;fill-rule:nonzero;stroke:none;stroke-width:0.14;stroke-linecap:butt;stroke-linejoin:miter;stroke-miterlimit:4;stroke-dasharray:none"
         id="path3524"
         inkscape:connector-curvature="0" />
      <path
         d="m 1048.8828,-366.36382 c -6.3697,0.51565 -12.9822,0.75831 -19.6553,0.75831 -6.5821,0 -12.9215,-0.24266 -18.806,-0.75831 0.3033,-0.78864 6.4608,-17.83539 6.6124,-18.22969 6.3092,-0.51567 12.9216,-0.75831 19.625,-0.75831 6.6428,0 12.9823,0.24264 18.8364,0.72798 -0.273,0.81895 -6.4608,17.8657 -6.6125,18.26002 z m 10.3737,6.73378 0.2123,-0.0303 11.4656,-31.57593 -0.3943,-0.091 c -3.6399,-0.63699 -7.6134,-1.18297 -11.7689,-1.5773 -6.1272,-0.60662 -12.6183,-0.90996 -19.2914,-0.90996 -6.6428,0 -13.3765,0.30334 -19.9283,0.90996 -4.4588,0.39433 -8.7963,0.90997 -12.8912,1.5773 l -0.2123,0.0303 -11.46564,31.60624 0.39432,0.0607 c 3.67021,0.63697 7.61342,1.18295 11.73862,1.57727 6.1574,0.57632 12.6485,0.87965 19.3216,0.87965 6.6428,0 13.3766,-0.30333 19.9283,-0.87965 4.4286,-0.39432 8.7661,-0.9403 12.8913,-1.57727"
         style="fill:#000000;fill-rule:nonzero;stroke:none;stroke-width:0.14;stroke-linecap:butt;stroke-linejoin:miter;stroke-miterlimit:4;stroke-dasharray:none"
         id="path3528"
         inkscape:connector-curvature="0" />
      <path
         d="m 448.76755,-385.35182 c 6.16957,0 11.28361,0.21231 17.46231,0.72798 -0.24267,0.69763 -1.71378,4.76216 -1.85331,5.15648 l -35.73752,0 c 0.26997,-0.75831 1.73501,-4.76216 1.8624,-5.12615 6.70041,-0.546 12.01462,-0.75831 18.26612,-0.75831 z m 20.76852,-7.55276 c -5.56901,-0.54598 -10.74369,-0.90996 -17.95368,-0.90996 -7.2009,0 -12.63037,0.36398 -18.57853,0.90996 -4.45278,0.39433 -8.78424,0.90997 -12.89731,1.5773 l -0.19109,0.0303 -12.29063,33.85083 13.01559,0 c 0,0 4.94719,-13.61921 5.10188,-14.04384 l 35.73447,0 c -0.31241,0.84929 -5.10491,14.04384 -5.10491,14.04384 l 13.01253,0 12.28459,-33.79018 -0.39432,-0.091 c -3.63987,-0.63699 -7.58308,-1.18297 -11.73859,-1.5773"
         style="fill:#000000;fill-rule:nonzero;stroke:none;stroke-width:0.14;stroke-linecap:butt;stroke-linejoin:miter;stroke-miterlimit:4;stroke-dasharray:none"
         id="path3538"
         inkscape:connector-curvature="0" />
      <path
         d="m 373.0551,-366.39415 c -6.4183,0.54598 -13.10051,0.78864 -19.85249,0.78864 -6.59726,0 -12.91851,-0.24266 -18.83331,-0.75831 0.30938,-0.81895 10.07337,-27.7237 10.07337,-27.7237 l -13.01863,0 -12.47871,34.39681 0.39735,0.0607 c 3.63987,0.63697 7.59521,1.18295 11.74771,1.57727 6.15139,0.57632 12.64855,0.87965 19.29741,0.87965 6.66097,0 13.37348,-0.30333 19.94347,-0.87965 4.42548,-0.39432 8.75997,-0.9403 12.90031,-1.57727 l 0.19413,-0.0303 2.99684,-8.28071 -0.56418,0.091 c -3.97049,0.60665 -8.27768,1.09196 -12.80327,1.45595"
         style="fill:#000000;fill-rule:nonzero;stroke:none;stroke-width:0.14;stroke-linecap:butt;stroke-linejoin:miter;stroke-miterlimit:4;stroke-dasharray:none"
         id="path3542"
         inkscape:connector-curvature="0" />
      <path
         d="m 748.1685,-392.90458 c -6.12712,-0.60662 -12.61823,-0.90996 -19.29134,-0.90996 -6.6731,0 -13.37654,0.30334 -19.95866,0.90996 -4.42852,0.39433 -8.76602,0.90997 -12.89122,1.5773 l -0.18199,0.0303 -3.0029,8.28071 0.57631,-0.091 c 3.94321,-0.60663 8.2504,-1.12227 12.80023,-1.48626 4.15554,-0.33367 8.61438,-0.546 13.16422,-0.66732 -0.33365,0.90996 -10.25232,28.20903 -10.25232,28.20903 l 13.04289,0 c 0,0 10.07033,-27.75404 10.22199,-28.20903 4.58017,0.091 8.94803,0.33365 12.95188,0.66732 4.24652,0.36399 8.18973,0.87963 11.70827,1.48626 l 0.30332,0.0303 2.97256,-8.15939 -0.42466,-0.091 c -3.60953,-0.63699 -7.58307,-1.18297 -11.73858,-1.5773"
         style="fill:#000000;fill-rule:nonzero;stroke:none;stroke-width:0.14;stroke-linecap:butt;stroke-linejoin:miter;stroke-miterlimit:4;stroke-dasharray:none"
         id="path3546"
         inkscape:connector-curvature="0" />
      <path
         d="m 658.47591,-392.90458 c -6.12712,-0.60662 -12.61823,-0.90996 -19.29134,-0.90996 -6.6731,0 -13.37654,0.30334 -19.95864,0.90996 -4.42854,0.39433 -8.76604,0.90997 -12.89124,1.5773 l -0.18199,0.0303 -7.18875,19.80699 c 0,0 50.53359,0 51.4739,0 -0.27298,0.75831 -1.72895,4.76216 -1.85027,5.12614 -6.36979,0.51565 -12.95189,0.75831 -19.65533,0.75831 -6.73375,0 -13.22486,-0.24266 -19.261,-0.78864 -4.24652,-0.36399 -8.18973,-0.8493 -11.73861,-1.45595 l -0.27298,-0.0607 -2.97256,8.22006 0.39432,0.0607 c 3.63987,0.63697 7.61341,1.18295 11.7386,1.57727 6.15744,0.57632 12.64855,0.87965 19.29132,0.87965 6.67311,0 13.37655,-0.30333 19.95867,-0.87965 4.42851,-0.39432 8.76601,-0.9403 12.89121,-1.57727 l 0.21233,-0.0303 7.18875,-19.80699 c 0,0 -50.53359,0 -51.50423,0 0.30331,-0.75831 1.75928,-4.76216 1.8806,-5.12615 6.27878,-0.51567 12.89122,-0.75831 19.62499,-0.75831 6.82477,0 13.28554,0.24264 19.29134,0.75831 4.24652,0.36399 8.18973,0.87963 11.70827,1.48626 l 0.30332,0.0303 2.97256,-8.15939 -0.39432,-0.091 c -3.6702,-0.63699 -7.61341,-1.18297 -11.76892,-1.5773"
         style="fill:#000000;fill-rule:nonzero;stroke:none;stroke-width:0.14;stroke-linecap:butt;stroke-linejoin:miter;stroke-miterlimit:4;stroke-dasharray:none"
         id="path3550"
         inkscape:connector-curvature="0" />
      <path
         d="m 559.38032,-380.68066 c -4.48919,0.33367 -8.00773,0.57631 -12.83057,0.69766 0.21233,-0.69766 1.00098,-3.21523 1.00098,-3.21523 l -13.01256,0 c 0,0 -0.84932,2.7299 -0.97064,3.15456 -4.09486,-0.12133 -9.16034,-0.33366 -12.64857,-0.63699 0.273,-0.78862 4.76219,-13.13388 4.76219,-13.13388 l -13.01256,0 -7.18875,19.77667 0.39432,0.0607 c 3.60953,0.63699 7.58307,1.18297 11.73858,1.60763 3.63989,0.33365 8.79638,0.57629 12.89124,0.72797 -0.273,0.81896 -5.27783,14.58982 -5.27783,14.58982 l 13.01256,0 c 0,0 5.12615,-14.10451 5.27781,-14.49884 4.94418,-0.12132 9.46367,-0.39432 14.19552,-0.81895 4.48916,-0.42466 7.97737,-0.97064 12.04192,-1.60763 l 0.21231,-0.0303 7.18877,-19.80698 -13.01256,0 c 0,0 -4.6105,12.70924 -4.76216,13.13388"
         style="fill:#000000;fill-rule:nonzero;stroke:none;stroke-width:0.14;stroke-linecap:butt;stroke-linejoin:miter;stroke-miterlimit:4;stroke-dasharray:none"
         id="path3554"
         inkscape:connector-curvature="0" />
      <path
         d="m 1154.1965,-392.90458 c -6.1574,-0.60662 -12.6485,-0.90996 -19.3216,-0.90996 -6.4608,0 -13.0126,0.30334 -19.3824,0.87965 0.091,-0.30334 0.364,-1.06165 0.364,-1.06165 l -13.0125,0 -13.3462,36.73242 13.0125,0 c 0,0 9.767,-26.93509 9.9187,-27.32939 6.3091,-0.51567 12.9215,-0.75831 19.625,-0.75831 6.6731,0 12.9822,0.24264 18.8363,0.72798 -0.273,0.84929 -9.9186,27.35972 -9.9186,27.35972 l 13.0125,0 12.3453,-33.97218 -0.3944,-0.091 c -3.6398,-0.63699 -7.583,-1.18297 -11.7386,-1.5773"
         style="fill:#000000;fill-rule:nonzero;stroke:none;stroke-width:0.14;stroke-linecap:butt;stroke-linejoin:miter;stroke-miterlimit:4;stroke-dasharray:none"
         id="path3558"
         inkscape:connector-curvature="0" />
      <path
         d="m 1286.5363,-391.32728 c -3.6095,-0.63699 -7.583,-1.18297 -11.7385,-1.5773 -6.1272,-0.60662 -12.6486,-0.90996 -19.2914,-0.90996 -6.6731,0 -13.3765,0.30334 -19.9586,0.90996 -4.4286,0.39433 -8.7661,0.90997 -12.8913,1.5773 l -0.182,0.0303 -3.0332,8.28071 0.6067,-0.091 c 3.9432,-0.60663 8.2503,-1.12227 12.7699,-1.48626 6.3697,-0.51567 13.0428,-0.75831 19.8676,-0.75831 6.6428,0 12.9519,0.24264 18.8364,0.72798 -0.273,0.72797 -1.729,4.76216 -1.8807,5.15648 -0.4549,0 -39.1893,0 -39.1893,0 l -2.8815,7.9774 c 0,0 38.2187,0 39.1893,0 -0.273,0.75831 -1.729,4.76216 -1.8806,5.12614 -6.3395,0.51565 -12.9519,0.75831 -19.625,0.75831 -6.7338,0 -13.2552,-0.24266 -19.2913,-0.78864 -4.2466,-0.36399 -8.1898,-0.8493 -11.7083,-1.45595 l -0.273,-0.0607 -2.9726,8.22006 0.3944,0.0607 c 3.6398,0.63697 7.583,1.18295 11.7385,1.57727 6.1575,0.57632 12.6486,0.87965 19.2914,0.87965 6.6731,0 13.3765,-0.30333 19.9586,-0.87965 4.4286,-0.39432 8.7661,-0.9403 12.8913,-1.57727 l 0.2123,-0.0303 11.4353,-31.57593 -0.3944,-0.091"
         style="fill:#000000;fill-rule:nonzero;stroke:none;stroke-width:0.14;stroke-linecap:butt;stroke-linejoin:miter;stroke-miterlimit:4;stroke-dasharray:none"
         id="path3568"
         inkscape:connector-curvature="0" />
      <path
         d="m 924.91476,-392.90458 c -6.15746,-0.60662 -12.64857,-0.90996 -19.32167,-0.90996 -6.67311,0 -13.37655,0.30334 -19.92831,0.90996 -4.45885,0.39433 -8.79637,0.90997 -12.89124,1.5773 l -0.21233,0.0303 -3.00287,8.28071 0.57629,-0.091 c 3.97354,-0.60663 8.28073,-1.12227 12.80023,-1.48626 4.18587,-0.33367 8.61438,-0.546 13.19455,-0.66732 -0.36399,0.90996 -10.25232,28.20903 -10.25232,28.20903 l 13.01256,0 c 0,0 10.07033,-27.75404 10.25232,-28.20903 4.54983,0.091 8.9177,0.33365 12.92155,0.66732 4.24652,0.36399 8.18972,0.87963 11.7386,1.48626 l 0.27298,0.0303 2.97257,-8.15939 -0.39433,-0.091 c -3.63986,-0.63699 -7.58307,-1.18297 -11.73858,-1.5773"
         style="fill:#000000;fill-rule:nonzero;stroke:none;stroke-width:0.14;stroke-linecap:butt;stroke-linejoin:miter;stroke-miterlimit:4;stroke-dasharray:none"
         id="path3578"
         inkscape:connector-curvature="0" />
      <path
         d="m 949.87823,-357.0518 13.01256,0 13.34621,-36.73241 -13.01256,0 -13.34621,36.73241"
         style="fill:#000000;fill-rule:nonzero;stroke:none;stroke-width:0.14;stroke-linecap:butt;stroke-linejoin:miter;stroke-miterlimit:4;stroke-dasharray:none"
         id="path3582"
         inkscape:connector-curvature="0" />
      <path
         d="m 284.27855,-380.04367 c -5.80862,0.36398 -12.99737,0.57631 -21.38122,0.57631 0,0 -16.36125,0 -17.27425,0 0.26694,-0.75831 1.72592,-4.76216 1.85634,-5.12615 6.29698,-0.51567 12.90335,-0.75831 19.62803,-0.75831 6.64883,0 12.97008,0.24264 18.83634,0.72798 -0.25174,0.69763 -1.53176,4.24651 -1.66524,4.58017 z m 16.69793,-11.28361 c -3.63987,-0.63699 -7.58914,-1.18297 -11.74768,-1.5773 -6.14533,-0.60662 -12.63644,-0.90996 -19.29741,-0.90996 -6.49415,0 -14.10452,0.51564 -19.13665,0.84932 l -0.80382,0.0606 c -4.04935,0.27301 -11.84475,0.97064 -16.57658,1.60763 l -2.83304,7.82571 c 1.36496,-0.091 3.06357,-0.18199 3.54584,-0.18199 -0.33668,0.90999 -9.76395,26.87441 -9.76395,26.87441 l 13.01557,0 c 0,0 5.18684,-14.28651 5.34457,-14.71114 0.46103,0 17.43197,0 17.43197,0 27.00786,0 34.47566,-2.33561 34.7881,-2.42659 l 0.15165,-0.0607 6.28182,-17.25908 -0.40039,-0.091"
         style="fill:#000000;fill-rule:nonzero;stroke:none;stroke-width:0.14;stroke-linecap:butt;stroke-linejoin:miter;stroke-miterlimit:4;stroke-dasharray:none"
         id="path3586"
         inkscape:connector-curvature="0" />
    </g>
  </g>
</svg>
