<?xml version="1.0" encoding="UTF-8" standalone="no"?>
<!-- Generator: Adobe Illustrator 23.0.3, SVG Export Plug-In . SVG Version: 6.00 Build 0)  -->

<svg
   version="1.1"
   id="svg2"
   x="0px"
   y="0px"
   viewBox="0 0 403.20001 102"
   xml:space="preserve"
   sodipodi:docname="Steam_logo.svg"
   width="403.20001"
   height="102"
   inkscape:version="1.1.2 (b8e25be833, 2022-02-05)"
   xmlns:inkscape="http://www.inkscape.org/namespaces/inkscape"
   xmlns:sodipodi="http://sodipodi.sourceforge.net/DTD/sodipodi-0.dtd"
   xmlns="http://www.w3.org/2000/svg"
   xmlns:svg="http://www.w3.org/2000/svg"><defs
   id="defs69" /><sodipodi:namedview
   id="namedview67"
   pagecolor="#ffffff"
   bordercolor="#111111"
   borderopacity="1"
   inkscape:pageshadow="0"
   inkscape:pageopacity="0"
   inkscape:pagecheckerboard="1"
   showgrid="false"
   inkscape:zoom="2.2204545"
   inkscape:cx="210.99284"
   inkscape:cy="50.665302"
   inkscape:window-width="1128"
   inkscape:window-height="682"
   inkscape:window-x="-6"
   inkscape:window-y="-6"
   inkscape:window-maximized="1"
   inkscape:current-layer="g64" />
<g
   id="g64"
   transform="translate(-8.8,-12)">
	<g
   id="g44">
		<path
   d="m 202,26 c -9,0 -16,7.3 -16,16.2 0,9 7,16.3 16,16.3 9,0 17,-7.3 17,-16.3 C 219,33.3 211,26 202,26 Z"
   id="path40" />
		<path
   d="m 202,12 c -16,0 -30,13.4 -30,30.1 l -19,27.1 c -1,-0.1 -1,-0.2 -2,-0.2 -4,0 -8,1.2 -12,3.2 L 53.6,37.8 C 51.3,27.6 42.2,20 31.4,20 19,20 8.8,30.2 8.8,42.7 c 0,12.4 10.2,22.6 22.6,22.6 4.3,0 8.2,-1.1 11.6,-3.2 l 86,34.4 c 2,10.5 11,17.5 22,17.5 11,0 21,-9 22,-20.1 l 29,-21.2 c 17,0 31,-13.6 31,-30.4 C 233,25.6 219,12 202,12 Z M 37.9,31.5 C 31.2,29.1 23.8,32.4 21.1,39 18.5,45.7 21.5,53.2 28,56.1 l 7,2.8 c -1.1,0.3 -2.3,0.4 -3.6,0.4 -9.2,0 -16.6,-7.4 -16.6,-16.6 0,-9.3 7.4,-16.7 16.6,-16.7 6.4,0 12,3.5 14.8,8.8 z M 151,108 c -7,0 -12,-3 -15,-8.5 3,1.5 5,2.5 8,3.5 7,3 14,-1 17,-7.4 2,-6.2 0,-14.7 -7,-17.4 l -7,-2.8 c 1,-0.2 3,-0.4 4,-0.4 9,0 16,7.5 16,16.7 0,9.3 -7,16.3 -16,16.3 z m 51,-45.3 c -11,0 -20,-9.1 -20,-20.4 0,-11.2 9,-20.3 20,-20.3 12,0 21,9.1 21,20.3 0,11.3 -9,20.4 -21,20.4 z"
   id="path42" />
	</g>
	<g
   id="g56">
		<path
   d="M 261,38.6 257,38 c -2,-0.2 -4,-1.3 -4,-3.6 0,-2.9 2,-4 5,-4.2 3,0 5,0.8 7,2.3 l 4,-4.1 c -3,-2.5 -6,-3.8 -11,-3.8 -3,0 -6,0.9 -8,2.7 -2,1.9 -3,4.3 -3,7.3 0,5.4 3,8.5 9,9.3 l 4,0.5 c 2,0.4 4,1.5 4,4 0,2.7 -2,4.1 -6,4.1 -4,0 -6,-1 -8,-2.8 l -4,4.1 c 2,3 6,4.4 12,4.4 6,-0.1 12,-3.2 12,-10 0,-5.6 -4,-9 -9,-9.6 z"
   id="path46" />
		<polygon
   points="287,57.9 294,57.9 294,30.6 302,30.6 302,24.9 278,24.9 278,30.6 287,30.6 "
   id="polygon48" />
		<polygon
   points="334,52.2 319,52.2 319,44.1 332,44.1 332,38.4 319,38.4 319,30.6 334,30.6 334,24.9 312,24.9 312,57.9 334,57.9 "
   id="polygon50" />
		<path
   d="m 356,24.9 -12,33 h 7 l 2,-5.8 h 11 l 2,5.8 h 7 l -12,-33 z m -1,21.7 4,-12 4,12 z"
   id="path52" />
		<polygon
   points="389,24.9 382,24.9 382,57.9 389,57.9 389,38.7 395,51.2 399,51.2 406,38.7 406,57.9 412,57.9 412,24.9 406,24.9 397,42.7 "
   id="polygon54" />
	</g>
	
</g>
</svg>
